{
  "accessors": [
    {
      "bufferView": 2,
      "componentType": 5126,
      "count": 33182,
      "max": [
        12.910764694213867,
        6.9115142822265625,
        8.539214134216309
      ],
      "min": [
        -6.036637306213379,
        -8.360186576843262,
        -60.042484283447266
      ],
      "type": "VEC3"
    },
    {
      "bufferView": 2,
      "byteOffset": 398184,
      "componentType": 5126,
      "count": 33182,
      "max": [
        0.9999604225158691,
        0.9999992847442627,
        1.0
      ],
      "min": [
        -0.9998487234115601,
        -0.9999972581863403,
        -0.9899939298629761
      ],
      "type": "VEC3"
    },
    {
      "bufferView": 1,
      "componentType": 5126,
      "count": 33182,
      "max": [
        1.0000004768371582,
        0.999664306640625
      ],
      "min": [
        0.0,
        0.0
      ],
      "type": "VEC2"
    },
    {
      "bufferView": 1,
      "byteOffset": 265456,
      "componentType": 5126,
      "count": 33182,
      "max": [
        1.0000004768371582,
        0.999664306640625
      ],
      "min": [
        0.0,
        0.0
      ],
      "type": "VEC2"
    },
    {
      "bufferView": 0,
      "componentType": 5125,
      "count": 90282,
      "type": "SCALAR"
    }
  ],
  "asset": {
    "extras": {
      "author": "aeonfitzgerald (https://sketchfab.com/aeonfitzgerald)",
      "license": "CC-BY-4.0 (http://creativecommons.org/licenses/by/4.0/)",
      "source": "https://sketchfab.com/3d-models/prins-jellyfish-3cfe9d4021b14a5fad8372bcb490956b",
      "title": "Prins Jellyfish"
    },
    "generator": "Sketchfab-12.65.0",
    "version": "2.0"
  },
  "bufferViews": [
    {
      "buffer": 0,
      "byteLength": 361128,
      "name": "floatBufferViews",
      "target": 34963
    },
    {
      "buffer": 0,
      "byteLength": 530912,
      "byteOffset": 361128,
      "byteStride": 8,
      "name": "floatBufferViews",
      "target": 34962
    },
    {
      "buffer": 0,
      "byteLength": 796368,
      "byteOffset": 892040,
      "byteStride": 12,
      "name": "floatBufferViews",
      "target": 34962
    }
  ],
  "buffers": [
    {
      "byteLength": 1688408,
      "uri": "scene.bin"
    }
  ],
  "extensionsRequired": [
    "KHR_materials_pbrSpecularGlossiness"
  ],
  "extensionsUsed": [
    "KHR_materials_pbrSpecularGlossiness"
  ],
  "images": [
    {
      "uri": "textures/Plane.001_Bake1_baked_diffuse.png"
    }
  ],
  "materials": [
    {
      "alphaMode": "BLEND",
      "doubleSided": true,
      "emissiveFactor": [
        0.00364699269301134,
        0.06256735617030239,
        0.16961368595750506
      ],
      "extensions": {
        "KHR_materials_pbrSpecularGlossiness": {
          "diffuseFactor": [
            0.0,
            1.0,
            0.6611308091979542,
            0.5426074560334426
          ],
          "diffuseTexture": {
            "index": 0
          },
          "glossinessFactor": 0.9447963385577263,
          "specularFactor": [
            1.0,
            1.0,
            1.0
          ]
        }
      },
      "name": "Plane.001_Bake1_baked"
    }
  ],
  "meshes": [
    {
      "name": "Plane.001_Baked_Plane.001_Bake1_baked_0",
      "primitives": [
        {
          "attributes": {
            "NORMAL": 1,
            "POSITION": 0,
            "TEXCOORD_0": 2,
            "TEXCOORD_1": 3
          },
          "indices": 4,
          "material": 0,
          "mode": 4
        }
      ]
    }
  ],
  "nodes": [
    {
      "children": [
        1
      ],
      "matrix": [
        1.0,
        0.0,
        0.0,
        0.0,
        0.0,
        2.220446049250313e-16,
        -1.0,
        0.0,
        0.0,
        1.0,
        2.220446049250313e-16,
        0.0,
        0.0,
        0.0,
        0.0,
        1.0
      ],
      "name": "Sketchfab_model"
    },
    {
      "children": [
        2
      ],
      "matrix": [
        1.0,
        0.0,
        0.0,
        0.0,
        0.0,
        0.0,
        1.0,
        0.0,
        0.0,
        -1.0,
        0.0,
        0.0,
        0.0,
        0.0,
        0.0,
        1.0
      ],
      "name": "8d25b847f4a84ca892ef1e270c24b828.fbx"
    },
    {
      "children": [
        3
      ],
      "name": "RootNode"
    },
    {
      "children": [
        4
      ],
      "matrix": [
        109.03744506835938,
        0.0,
        0.0,
        0.0,
        0.0,
        -23.831804674617413,
        -106.4011803353976,
        0.0,
        0.0,
        106.4011803353976,
        -23.831804674617413,
        0.0,
        0.0,
        -199.47952270507813,
        0.0,
        1.0
      ],
      "name": "Plane.001_Baked"
    },
    {
      "mesh": 0,
      "name": "Plane.001_Baked_Plane.001_Bake1_baked_0"
    }
  ],
  "samplers": [
    {
      "magFilter": 9729,
      "minFilter": 9987,
      "wrapS": 10497,
      "wrapT": 10497
    }
  ],
  "scene": 0,
  "scenes": [
    {
      "name": "Sketchfab_Scene",
      "nodes": [
        0
      ]
    }
  ],
  "textures": [
    {
      "sampler": 0,
      "source": 0
    }
  ]
}
